<?xml version="1.0" encoding="utf-8"?>
<!-- Generator: Adobe Illustrator 22.1.0, SVG Export Plug-In . SVG Version: 6.00 Build 0)  -->
<svg version="1.1" id="Layer_1" xmlns="http://www.w3.org/2000/svg" xmlns:xlink="http://www.w3.org/1999/xlink" x="0px" y="0px"
	 viewBox="0 0 82 108" style="enable-background:new 0 0 82 108;" xml:space="preserve">
<style type="text/css">
	.st0{fill:#FFFFFF;}
</style>
<g>
	<g>
		<path class="st0" d="M0.8,56.7h5.5c3.3,0,5.8,2.1,5.8,6.3c0,3.7-1.9,6.5-5.8,6.5H0.8V56.7z M3.6,67.1h2.5c1.6,0,3.2-1,3.2-3.8
			c0-2.6-0.9-4.2-3.7-4.2h-2V67.1z"/>
		<path class="st0" d="M15.6,58.8h-2.5v-2.1h2.5V58.8z M13.1,60.2h2.5v9.2h-2.5V60.2z"/>
		<path class="st0" d="M17.3,60.2h2.4v1.3h0.1c0.6-1,1.8-1.5,2.8-1.5c2.7,0,3.4,1.5,3.4,3.8v5.7h-2.5v-5.2c0-1.5-0.4-2.3-1.6-2.3
			c-1.4,0-2,0.8-2,2.6v4.8h-2.5V60.2z"/>
		<path class="st0" d="M27.2,60.2h2.4v1.3h0.1c0.6-1,1.7-1.5,2.8-1.5c2.7,0,3.4,1.5,3.4,3.8v5.7h-2.5v-5.2c0-1.5-0.4-2.3-1.6-2.3
			c-1.4,0-2,0.8-2,2.6v4.8h-2.5V60.2z"/>
		<path class="st0" d="M39.1,65.4c0.1,1.6,0.9,2.3,2.3,2.3c1,0,1.8-0.6,2-1.2h2.2c-0.7,2.2-2.2,3.1-4.3,3.1c-2.9,0-4.7-2-4.7-4.9
			c0-2.8,1.9-4.9,4.7-4.9c3.1,0,4.7,2.6,4.5,5.5H39.1z M43.3,63.8c-0.2-1.3-0.8-2-2-2c-1.6,0-2.1,1.2-2.1,2H43.3z"/>
		<path class="st0" d="M46.9,60.2h2.4v1.7h0c0.5-1.2,1.7-2,2.9-2c0.2,0,0.4,0,0.6,0.1v2.4c-0.2-0.1-0.6-0.1-0.9-0.1
			c-1.9,0-2.5,1.3-2.5,3v4.2h-2.5V60.2z"/>
		<path class="st0" d="M0.8,72.1h5.8c3.2,0,4.4,2,4.4,4.1c0,2.1-1.2,4.1-4.4,4.1H3.6v4.6H0.8V72.1z M3.6,78.1h2.2
			c1.3,0,2.5-0.3,2.5-1.9c0-1.6-1.2-1.9-2.5-1.9H3.6V78.1z"/>
		<path class="st0" d="M11.6,78.5c0.1-2.4,2.3-3.1,4.3-3.1c1.8,0,4.1,0.4,4.1,2.6v4.8c0,0.8,0.1,1.7,0.3,2.1h-2.6
			c-0.1-0.3-0.2-0.6-0.2-0.9c-0.8,0.8-2,1.1-3.1,1.1c-1.8,0-3.1-0.9-3.1-2.8c0-2.1,1.6-2.6,3.1-2.8c1.6-0.2,3-0.2,3-1.2
			c0-1.1-0.8-1.2-1.6-1.2c-1,0-1.6,0.4-1.7,1.4H11.6z M17.5,80.4c-0.4,0.4-1.3,0.4-2.1,0.5c-0.8,0.2-1.5,0.4-1.5,1.4
			c0,0.9,0.7,1.2,1.6,1.2c2,0,2.1-1.6,2.1-2.1V80.4z"/>
		<path class="st0" d="M21.6,75.6H24v1.7h0c0.5-1.2,1.7-2,2.9-2c0.2,0,0.4,0,0.6,0.1v2.4c-0.2-0.1-0.6-0.1-0.9-0.1
			c-1.9,0-2.5,1.3-2.5,3v4.2h-2.5V75.6z"/>
		<path class="st0" d="M31.8,75.6h1.9v1.7h-1.9v4.6c0,0.9,0.2,1.1,1.1,1.1c0.3,0,0.5,0,0.8-0.1v2c-0.4,0.1-1,0.1-1.5,0.1
			c-1.6,0-2.9-0.4-2.9-2.2v-5.4h-1.5v-1.7h1.5v-2.8h2.5V75.6z"/>
		<path class="st0" d="M39.4,86c-0.6,1.5-1.4,2.1-3.2,2.1c-0.5,0-1,0-1.6-0.1v-2.1c0.5,0,1,0.1,1.5,0.1c0.9-0.1,1.2-1,0.9-1.7
			l-3.3-8.7h2.7l2.1,6.3h0l2-6.3h2.6L39.4,86z"/>
		<path class="st0" d="M0.8,87.5h5.5c3.3,0,5.8,2.1,5.8,6.3c0,3.7-1.9,6.5-5.8,6.5H0.8V87.5z M3.6,97.9h2.5c1.6,0,3.2-1,3.2-3.8
			c0-2.6-0.9-4.2-3.7-4.2h-2V97.9z"/>
		<path class="st0" d="M15.5,96.3c0.1,1.6,0.9,2.3,2.3,2.3c1,0,1.8-0.6,2-1.2H22c-0.7,2.2-2.2,3.1-4.3,3.1c-2.9,0-4.7-2-4.7-4.9
			c0-2.8,1.9-4.9,4.7-4.9c3.1,0,4.7,2.6,4.5,5.5H15.5z M19.6,94.7c-0.2-1.3-0.8-2-2-2c-1.6,0-2.1,1.3-2.1,2H19.6z"/>
		<path class="st0" d="M23.4,87.5h2.5v12.8h-2.5V87.5z"/>
		<path class="st0" d="M30.5,89.6H28v-2.1h2.5V89.6z M28,91.1h2.5v9.2H28V91.1z"/>
		<path class="st0" d="M37.6,100.3h-2.8l-3.2-9.2h2.7l1.9,6.3h0l1.9-6.3h2.5L37.6,100.3z"/>
		<path class="st0" d="M43.2,96.3c0.1,1.6,0.9,2.3,2.3,2.3c1,0,1.8-0.6,2-1.2h2.2c-0.7,2.2-2.2,3.1-4.3,3.1c-2.9,0-4.7-2-4.7-4.9
			c0-2.8,1.9-4.9,4.7-4.9c3.1,0,4.7,2.6,4.5,5.5H43.2z M47.3,94.7c-0.2-1.3-0.8-2-2-2c-1.6,0-2.1,1.3-2.1,2H47.3z"/>
		<path class="st0" d="M51,91.1h2.4v1.7h0c0.5-1.2,1.7-2,2.9-2c0.2,0,0.4,0,0.6,0.1v2.4c-0.2-0.1-0.6-0.1-0.9-0.1
			c-1.9,0-2.5,1.3-2.5,3v4.2H51V91.1z"/>
		<path class="st0" d="M59.7,96.3c0.1,1.6,0.9,2.3,2.3,2.3c1,0,1.8-0.6,2-1.2h2.2c-0.7,2.2-2.2,3.1-4.3,3.1c-2.9,0-4.7-2-4.7-4.9
			c0-2.8,1.9-4.9,4.7-4.9c3.1,0,4.7,2.6,4.5,5.5H59.7z M63.8,94.7c-0.2-1.3-0.8-2-2-2c-1.6,0-2.1,1.3-2.1,2H63.8z"/>
		<path class="st0" d="M74.1,99.1L74.1,99.1c-0.6,1-1.7,1.4-2.8,1.4c-2.8,0-4.1-2.4-4.1-4.9c0-2.5,1.4-4.8,4.1-4.8
			c1.1,0,2.2,0.5,2.7,1.4h0v-4.6h2.5v12.8h-2.4V99.1z M71.9,92.7c-1.7,0-2.2,1.4-2.2,2.9c0,1.4,0.7,3,2.2,3c1.7,0,2.2-1.5,2.2-3
			C74.1,94.2,73.5,92.7,71.9,92.7z"/>
		<path class="st0" d="M79.9,87.4c0.9,0,1.6,0.6,1.6,1.6c0,1-0.8,1.6-1.6,1.6c-0.9,0-1.6-0.6-1.6-1.6C78.2,88.1,79,87.4,79.9,87.4z
			 M79.9,90.3c0.7,0,1.2-0.5,1.2-1.3c0-0.7-0.5-1.2-1.2-1.2c-0.7,0-1.2,0.5-1.2,1.2C78.7,89.8,79.2,90.3,79.9,90.3z M79.2,88.1h0.7
			c0.4,0,0.7,0.1,0.7,0.5c0,0.3-0.2,0.5-0.5,0.5l0.5,0.8h-0.4l-0.4-0.8h-0.2v0.8h-0.4V88.1z M79.6,88.9h0.3c0.2,0,0.3,0,0.3-0.2
			c0-0.2-0.2-0.2-0.4-0.2h-0.3V88.9z"/>
	</g>
	<rect x="0.4" y="105.2" class="st0" width="77.1" height="2.4"/>
	<g>
		<path class="st0" d="M39.2,13C17.8,13,0.4,30.3,0.4,51.7H78C78,30.3,60.6,13,39.2,13z"/>
	</g>
	<path class="st0" d="M39.2,17c-4.5,0-8.2-3.7-8.2-8.2c0-4.5,3.7-8.2,8.2-8.2c4.5,0,8.2,3.7,8.2,8.2C47.4,13.3,43.7,17,39.2,17z
		 M39.2,5.5c-1.8,0-3.3,1.5-3.3,3.3c0,1.8,1.5,3.3,3.3,3.3c1.8,0,3.3-1.5,3.3-3.3C42.5,7,41,5.5,39.2,5.5z"/>
</g>
</svg>
